<?xml version="1.0" standalone="no"?>
<!DOCTYPE svg PUBLIC "-//W3C//DTD SVG 20010904//EN"
 "http://www.w3.org/TR/2001/REC-SVG-20010904/DTD/svg10.dtd">
<svg version="1.0" xmlns="http://www.w3.org/2000/svg"
 width="274.000000pt" height="317.000000pt" viewBox="0 0 274.000000 317.000000"
 preserveAspectRatio="xMidYMid meet">

<g transform="translate(0.000000,317.000000) scale(0.100000,-0.100000)"
fill="#000000" stroke="none">
<path d="M648 2801 c-45 -18 -152 -90 -115 -77 10 3 16 2 13 -3 -3 -4 -21 -31
-39 -58 -80 -119 -68 -277 30 -394 28 -33 28 -33 29 -193 1 -181 19 -272 74
-375 39 -72 110 -160 110 -136 0 13 13 6 48 -27 27 -25 58 -51 71 -57 17 -10
20 -16 11 -26 -16 -20 -262 -184 -370 -248 -52 -30 -112 -73 -132 -94 -129
-133 -90 -322 74 -363 54 -14 124 -3 190 31 l41 21 -6 -29 c-22 -99 -29 -182
-25 -278 4 -89 10 -122 31 -175 14 -35 25 -65 24 -66 -1 -1 -54 -9 -118 -18
-173 -24 -248 -49 -236 -80 8 -20 35 -31 129 -50 309 -64 1258 -76 1683 -21
198 26 276 52 262 88 -7 19 -103 44 -238 63 -63 9 -115 17 -116 18 -1 1 10 31
24 66 40 99 43 310 6 457 l-5 23 58 -27 c156 -71 309 0 322 150 9 107 -67 211
-209 287 -73 38 -351 223 -369 244 -9 12 -7 17 11 27 13 6 44 32 71 57 35 33
48 40 48 27 0 -24 71 64 110 136 55 104 73 194 74 375 l1 160 29 35 c38 44 73
122 81 180 9 59 -16 160 -53 214 -45 66 -45 65 -25 59 10 -4 -4 10 -32 30
-130 96 -279 87 -425 -25 l-35 -27 -70 23 c-94 32 -181 45 -295 45 -114 0
-201 -13 -295 -45 l-70 -23 -36 29 c-102 80 -243 109 -341 70z m237 -71 c22
-11 60 -39 83 -63 l43 -44 48 24 c71 34 163 52 276 54 142 3 287 -12 293 -31
2 -5 9 -7 17 -4 8 3 22 1 32 -6 14 -9 8 -10 -32 -5 -133 15 -198 17 -278 5
-48 -7 -87 -15 -87 -19 0 -4 26 -14 58 -21 89 -19 160 -49 198 -82 55 -48 48
-68 -56 -167 -49 -48 -91 -95 -91 -106 -1 -11 0 -61 1 -111 l2 -91 -31 -6
c-17 -4 -52 -16 -78 -29 -27 -12 -51 -21 -54 -21 -3 1 -6 -4 -6 -11 0 -11 9
-11 45 2 32 10 68 13 127 10 121 -8 133 -24 14 -20 -72 3 -112 0 -146 -12 -61
-21 -63 -21 -63 10 0 41 -50 84 -98 84 -39 0 -92 -34 -92 -60 0 -6 -4 -9 -9
-6 -14 9 8 -77 25 -95 8 -8 11 -19 7 -24 -5 -4 -2 -5 5 -1 6 4 12 2 12 -4 0
-6 4 -9 9 -6 13 8 42 -4 35 -15 -3 -5 -9 -7 -13 -5 -3 3 -7 -3 -8 -12 -3 -30
-51 -156 -62 -160 -5 -2 -15 6 -21 17 -6 12 -15 21 -20 21 -12 0 -8 -28 9 -59
l13 -24 -29 21 c-38 27 -56 49 -50 59 3 5 -3 9 -14 9 -24 0 -24 -1 2 -45 17
-29 8 -22 -45 32 -36 38 -66 66 -66 62 0 -12 32 -70 57 -103 14 -18 23 -36 20
-38 -6 -7 -105 117 -141 176 -32 52 -27 24 10 -60 21 -47 21 -52 4 -30 -32 40
-69 143 -85 236 -20 114 -19 141 3 87 l17 -41 0 116 c0 103 2 120 21 147 12
17 28 50 35 75 l14 45 6 -50 5 -50 13 48 c8 27 17 44 20 38 4 -6 23 6 45 30
22 21 50 42 62 45 18 5 24 13 24 34 0 37 -45 75 -112 95 -52 15 -83 12 -129
-11 -25 -12 -27 -12 -22 6 9 33 -4 23 -34 -27 -32 -52 -35 -102 -11 -145 12
-23 13 -22 19 12 6 31 7 31 10 3 0 -5 9 -11 20 -15 14 -5 19 -17 19 -43 0 -35
-24 -85 -41 -85 -17 0 -91 81 -105 117 -35 83 -14 205 50 280 65 77 209 108
301 63z m631 -809 c27 -12 64 -36 83 -54 37 -36 80 -118 82 -157 0 -23 1 -23
9 -5 6 13 9 -6 9 -60 1 -128 -31 -179 -144 -232 -53 -24 -72 -28 -160 -28
-115 0 -180 18 -238 66 -44 37 -64 72 -77 137 -10 55 -2 141 11 120 6 -10 9
-8 9 7 1 33 39 108 73 143 84 88 226 114 343 63z m-354 -589 c74 -27 233 -45
322 -38 57 4 65 3 41 -5 -16 -6 -84 -13 -150 -16 l-120 -6 50 -13 c28 -8 86
-14 130 -14 98 0 151 -14 187 -48 37 -34 42 -72 24 -162 -20 -97 -58 -171
-116 -232 -25 -26 -43 -48 -40 -48 15 0 101 64 125 92 36 42 31 25 -10 -37
-41 -61 -82 -95 -157 -130 -35 -17 -46 -25 -31 -25 32 0 127 37 158 62 l28 21
-12 -20 c-18 -34 -83 -83 -126 -94 -60 -17 -152 -6 -217 25 -160 76 -258 250
-258 457 0 91 22 200 46 237 18 27 33 26 126 -6z m-505 -160 c16 -19 -9 -69
-67 -135 -23 -26 -40 -50 -38 -53 3 -2 18 0 34 6 28 11 28 11 10 -9 -25 -27
-114 -71 -145 -71 -24 0 -24 0 -5 -16 18 -14 18 -15 -6 -8 -14 4 -31 7 -38 7
-7 0 -22 13 -33 28 -29 40 -11 105 44 160 46 46 132 93 149 83 6 -4 8 -3 4 4
-7 12 42 31 64 24 8 -3 20 -11 27 -20z m1530 15 c-4 6 22 -5 59 -25 80 -45
168 -126 160 -148 -3 -9 -2 -12 5 -9 6 4 9 1 8 -6 -1 -8 1 -22 5 -31 4 -9 3
-25 -3 -35 -12 -24 -78 -60 -88 -49 -4 5 -2 11 5 13 6 3 12 9 12 14 0 4 -6 6
-14 3 -26 -10 -92 16 -132 50 l-39 35 33 -9 c37 -10 41 -1 10 26 -35 31 -97
134 -91 151 8 21 45 33 62 19 11 -8 13 -8 8 1z m-1202 -295 c14 -46 39 -105
55 -133 16 -27 26 -49 23 -49 -4 0 1 -6 11 -13 9 -7 18 -20 20 -30 1 -10 5
-16 8 -15 3 2 24 -14 46 -34 58 -52 115 -79 207 -99 l80 -17 -84 -1 -84 -1 38
-30 c40 -32 37 -37 -13 -19 -18 6 -29 15 -26 20 3 5 -1 7 -8 4 -15 -6 -74 42
-70 57 1 5 -2 7 -7 4 -5 -4 -12 -2 -16 4 -12 20 -26 10 -14 -11 8 -15 -3 -10
-35 17 -41 34 -64 66 -34 48 7 -4 8 -3 4 5 -4 6 -11 9 -16 6 -5 -3 -16 5 -24
17 -22 31 -31 16 -11 -21 8 -17 13 -31 10 -31 -2 0 8 -21 25 -48 27 -44 28
-51 19 -92 -6 -25 -9 -87 -7 -138 l4 -92 -87 0 c-72 0 -91 3 -113 21 -56 44
-85 142 -87 287 -1 95 -15 81 -19 -18 l-2 -55 -10 50 c-10 57 -4 197 13 274
13 61 46 105 71 96 18 -7 49 -49 52 -72 1 -8 9 -19 17 -24 8 -5 10 -9 6 -9 -4
0 2 -10 13 -22 11 -12 18 -28 15 -36 -2 -7 -1 -11 4 -7 5 3 17 -2 25 -11 9 -8
16 -11 16 -6 0 5 -6 15 -14 21 -33 28 -87 211 -85 293 0 25 5 15 19 -39 17
-63 54 -153 64 -153 2 0 -5 28 -16 63 -15 44 -21 96 -24 177 l-3 115 9 -85 c5
-47 20 -122 35 -168z m738 -327 c-12 -25 -22 -34 -32 -30 -13 5 -13 4 -4 -6
10 -10 9 -16 -4 -31 -14 -16 -15 -23 -2 -60 17 -52 18 -185 1 -215 -14 -25
-50 -31 -70 -11 -7 7 -12 36 -11 68 1 45 3 50 10 30 6 -18 8 -10 5 30 -5 69
-8 81 -23 98 -20 21 -16 29 40 72 28 22 63 51 76 65 32 33 34 32 14 -10z
m-244 -222 c6 -23 11 -47 11 -52 0 -7 -36 -11 -100 -11 -64 0 -100 4 -100 11
0 5 5 29 11 52 l10 42 79 0 79 0 10 -42z"/>
<path d="M1022 2225 c-23 -7 -49 -18 -57 -25 -8 -6 -20 -8 -26 -4 -8 5 -9 3
-4 -6 6 -10 4 -12 -8 -7 -11 4 -14 2 -10 -9 3 -8 -2 -23 -12 -34 -10 -11 -15
-26 -11 -35 5 -14 8 -14 30 0 13 9 51 19 83 22 32 3 66 10 76 15 10 5 25 5 40
-2 18 -9 20 -9 7 2 -13 11 -17 21 -23 63 -2 10 -28 35 -37 34 -3 0 -24 -6 -48
-14z"/>
<path d="M1345 1891 c-48 -12 -74 -30 -91 -62 -30 -58 1 -112 73 -131 41 -10
44 -13 41 -42 -3 -28 -7 -31 -41 -34 -21 -2 -60 3 -87 11 l-50 15 0 -28 c0
-110 186 -180 310 -117 51 25 90 77 90 117 l0 28 -50 -15 c-27 -8 -66 -13 -87
-11 -35 3 -38 6 -38 33 0 26 5 31 39 40 43 12 86 55 86 86 0 32 -28 78 -58 93
-36 18 -100 26 -137 17z m111 -41 c38 -15 27 -20 -23 -10 -24 4 -62 4 -85 0
-49 -9 -62 -5 -27 9 32 13 102 13 135 1z"/>
</g>
</svg>
